<svg xmlns="http://www.w3.org/2000/svg" viewBox="0 0 64 64"><g data-name="CLOUD SERVER"><path d="m31.78 44.71.16.12a.55.55 0 0 0 .17.09.62.62 0 0 0 .19.06h.19a1.05 1.05 0 0 0 .71-.29 1.18 1.18 0 0 0 .21-.33.94.94 0 0 0 0-.76 1 1 0 0 0-.21-.33 1 1 0 0 0-.9-.27.6.6 0 0 0-.19.06.55.55 0 0 0-.17.09.83.83 0 0 0-.37.45.94.94 0 0 0 0 .76 1.15 1.15 0 0 0 .21.35Z" fill="#00F6FF"/><path d="M57.05 38a2.94 2.94 0 0 0-2.77 2h-4.09v-4h6.74a1 1 0 0 0 .42-.1l.1-.07a1 1 0 0 0 .23-.19 11.63 11.63 0 0 0-8.35-18.5 14.28 14.28 0 0 0-11.13-5.31 14.11 14.11 0 0 0-5 .91 11.34 11.34 0 0 0-21.88 3.66 11.67 11.67 0 0 0-5.07 19.26 1 1 0 0 0 .31.21A1 1 0 0 0 7 36h6.84v4H9.71a2.94 2.94 0 0 0-2.77-2 3 3 0 0 0 0 6 2.94 2.94 0 0 0 2.77-2h5.09a1 1 0 0 0 1-1v-5h5.86v13h-7a2.94 2.94 0 0 0-2.77-2 3 3 0 0 0 0 6 2.94 2.94 0 0 0 2.77-2h8a1 1 0 0 0 1-1V36h7.82v5a1 1 0 1 0 2 0v-5h6.84v14a1 1 0 0 0 1 1h8a2.94 2.94 0 0 0 2.77 2 3 3 0 0 0 0-6 2.94 2.94 0 0 0-2.77 2h-7V36h5.86v5a1 1 0 0 0 1 1h5.09a2.94 2.94 0 0 0 2.77 2 3 3 0 0 0 0-6ZM5 27.56a9.57 9.57 0 0 1 7.51-9.39 1 1 0 0 0 .8-1V17a9.36 9.36 0 0 1 18.37-2.71 1 1 0 0 0 1.39.63 12.12 12.12 0 0 1 5.19-1.15 12.31 12.31 0 0 1 9.84 4.9 1 1 0 0 0 .77.39A9.62 9.62 0 0 1 56.41 34h-49A9.62 9.62 0 0 1 5 27.56Z" fill="#00F6FF"/><path d="M43.54 53a2.94 2.94 0 0 0-2.77 2h-7.28v-8a1 1 0 0 0-2 0v8h-7a2.94 2.94 0 0 0-2.77-2 3 3 0 0 0 0 6 2.94 2.94 0 0 0 2.77-2h16.29a2.94 2.94 0 0 0 2.77 2 3 3 0 0 0 0-6Z" fill="#00F6FF"/></g></svg>