<?xml version="1.0" encoding="utf-8"?>
<!-- Generator: Adobe Illustrator 25.3.1, SVG Export Plug-In . SVG Version: 6.00 Build 0)  -->
<svg version="1.1" id="Layer_1" xmlns="http://www.w3.org/2000/svg" xmlns:xlink="http://www.w3.org/1999/xlink" x="0px" y="0px"
	 viewBox="0 0 94.35 84.52" style="enable-background:new 0 0 94.35 84.52;" xml:space="preserve">
<g>
	<path class="st0" d="M70.17,61.47h-7.59c-1,0-1.81-0.79-1.81-1.76c0-0.97,0.81-1.76,1.81-1.76h7.59c9.47,0,17.18-7.52,17.18-16.76
		c0-9.24-7.71-16.76-17.18-16.76c-1.3,0-2.59,0.14-3.84,0.42c-0.85,0.19-1.73-0.24-2.07-1.03l-0.17-0.4
		c-3.13-8.06-11.1-13.43-19.86-13.43c-11.26,0-20.56,8.59-21.17,19.55c-0.04,0.77-0.6,1.43-1.37,1.62l-0.62,0.15
		c-0.14,0.03-0.29,0.05-0.43,0.05c-7.52,0-13.63,5.96-13.63,13.3c0,7.33,6.11,13.3,13.63,13.3h9.95c1,0,1.81,0.79,1.81,1.76
		c0,0.97-0.81,1.76-1.81,1.76h-9.95c-9.51,0-17.24-7.55-17.24-16.82c0-8.93,7.17-16.26,16.19-16.79
		c1.43-12.11,11.98-21.4,24.64-21.4c9.9,0,18.93,5.85,22.81,14.67c1.03-0.15,2.08-0.23,3.13-0.23c11.46,0,20.79,9.1,20.79,20.29
		S81.63,61.47,70.17,61.47z" fill="#00F6FF" />
	<g>
		<g>
			<path class="st0" d="M38.16,75.11c-1,0-1.81-0.79-1.81-1.76V42.13c0-0.97,0.81-1.76,1.81-1.76c1,0,1.81,0.79,1.81,1.76v31.21
				C39.97,74.32,39.16,75.11,38.16,75.11z" fill="#00F6FF" />
			<path class="st0" d="M38.16,78.73c-0.48,0-0.94-0.19-1.28-0.52l-8.44-8.23c-0.71-0.69-0.71-1.8,0-2.49
				c0.71-0.69,1.85-0.69,2.56,0l7.16,6.99l7.16-6.99c0.71-0.69,1.85-0.69,2.56,0s0.71,1.8,0,2.49l-8.44,8.23
				C39.1,78.54,38.64,78.73,38.16,78.73z" fill="#00F6FF" />
		</g>
		<g>
			<path class="st0" d="M56.19,78.73c-1,0-1.81-0.79-1.81-1.76V45.76c0-0.97,0.81-1.76,1.81-1.76c1,0,1.81,0.79,1.81,1.76v31.21
				C58,77.94,57.19,78.73,56.19,78.73z" fill="#00F6FF" />
			<path class="st0" d="M47.75,52.13c-0.46,0-0.92-0.17-1.28-0.52c-0.71-0.69-0.71-1.8,0-2.49l8.44-8.23
				c0.34-0.33,0.8-0.52,1.28-0.52l0,0c0.48,0,0.94,0.19,1.28,0.52l8.44,8.23c0.71,0.69,0.71,1.8,0,2.49c-0.71,0.69-1.85,0.69-2.56,0
				l-7.16-6.99l-7.16,6.99C48.68,51.96,48.21,52.13,47.75,52.13z" fill="#00F6FF" />
		</g>
	</g>
</g>
</svg>
