<?xml version="1.0" encoding="UTF-8"?>
<svg width="752pt" height="752pt" version="1.1" viewBox="0 0 764 752" xmlns="http://www.w3.org/2000/svg">
 <g>
  <path d="m339 413h37c4.4414 0 7.3984-2.9609 7.3984-7.3984 0-4.4414-2.9609-7.3984-7.3984-7.3984h-37c-4.4414 0-7.3984 2.9609-7.3984 7.3984-0.003907 4.4375 2.957 7.3984 7.3984 7.3984z" fill="#00F6FF" />
  <path d="m413 398.2h-7.3984c-4.4414 0-7.3984 2.9609-7.3984 7.3984 0 4.4414 2.9609 7.3984 7.3984 7.3984h7.3984c4.4414 0 7.3984-2.9609 7.3984-7.3984s-2.957-7.3984-7.3984-7.3984z" fill="#00F6FF" />
  <path d="m339 442.6h7.3984c4.4414 0 7.3984-2.9609 7.3984-7.3984 0-4.4414-2.9609-7.3984-7.3984-7.3984h-7.3984c-4.4414 0-7.3984 2.9609-7.3984 7.3984-0.003907 4.4414 2.957 7.3984 7.3984 7.3984z" fill="#00F6FF" />
  <path d="m413 427.8h-37c-4.4414 0-7.3984 2.9609-7.3984 7.3984 0 4.4414 2.9609 7.3984 7.3984 7.3984h37c4.4414 0 7.3984-2.9609 7.3984-7.3984 0-4.4414-2.957-7.3984-7.3984-7.3984z" fill="#00F6FF" />
  <path d="m413 457.4h-73.996c-4.4414 0-7.3984 2.9609-7.3984 7.3984 0 4.4414 2.9609 7.3984 7.3984 7.3984h73.996c4.4414 0 7.3984-2.9609 7.3984-7.3984s-2.957-7.3984-7.3984-7.3984z" fill="#00F6FF" />
  <path d="m472.2 427.8c-8.1406 0-14.801-6.6602-14.801-14.801v-14.801c0-12.578-9.6211-22.199-22.199-22.199-4.4414 0-7.3984 2.9609-7.3984 7.3984 0 4.4414 2.9609 7.3984 7.3984 7.3984 4.4414 0 7.3984 2.9609 7.3984 7.3984v14.801c0 8.8789 3.6992 17.02 10.359 22.199-5.918 5.1797-10.359 13.32-10.359 22.199v14.801c0 4.4414-2.9609 7.3984-7.3984 7.3984-4.4414 0-7.3984 2.9609-7.3984 7.3984 0 4.4414 2.9609 7.3984 7.3984 7.3984 12.578 0 22.199-9.6211 22.199-22.199v-14.801c0-8.1406 6.6602-14.801 14.801-14.801 4.4414 0 7.3984-2.9609 7.3984-7.3984 0-4.4336-2.9609-7.3906-7.3984-7.3906z" fill="#00F6FF" />
  <path d="m309.4 413v-14.801c0-4.4414 2.9609-7.3984 7.3984-7.3984 4.4414 0 7.3984-2.9609 7.3984-7.3984 0-4.4414-2.9609-7.3984-7.3984-7.3984-12.578 0-22.199 9.6211-22.199 22.199v14.801c0 8.1406-6.6602 14.801-14.801 14.801-4.4414 0-7.3984 2.9609-7.3984 7.3984 0 4.4414 2.9609 7.3984 7.3984 7.3984 8.1406 0 14.801 6.6602 14.801 14.801v14.801c0 12.578 9.6211 22.199 22.199 22.199 4.4414 0 7.3984-2.9609 7.3984-7.3984 0-4.4414-2.9609-7.3984-7.3984-7.3984-4.4414 0-7.3984-2.9609-7.3984-7.3984v-14.801c0-8.8789-3.6992-17.02-10.359-22.199 6.6602-5.1875 10.359-13.328 10.359-22.207z" fill="#00F6FF" />
  <path d="m509.2 272.41h-22.199c-3.6992-57.719-51.797-103.6-111-103.6s-107.3 45.879-111 103.6h-22.199c-32.559 0-59.199 26.641-59.199 59.199 0 32.559 26.641 59.199 59.199 59.199v140.59c0 4.4414 2.9609 7.3984 7.3984 7.3984h85.836l-9.6211 29.598h-9.6133c-4.4414 0-7.3984 2.9609-7.3984 7.3984 0 4.4414 2.9609 7.3984 7.3984 7.3984h118.39c4.4414 0 7.3984-2.9609 7.3984-7.3984 0-4.4414-2.9609-7.3984-7.3984-7.3984h-9.6211l-9.6211-29.598 85.84-0.003906c4.4414 0 7.3984-2.9609 7.3984-7.3984v-140.59c32.559 0 59.199-26.641 59.199-59.199 0-32.559-26.641-59.195-59.199-59.195zm-99.156 295.99h-68.078l9.6211-29.598h48.84zm84.359-44.398h-236.79l-0.003906-177.59h236.79zm14.797-148v-37c0-4.4414-2.9609-7.3984-7.3984-7.3984h-251.59c-4.4414 0-7.3984 2.9609-7.3984 7.3984v37c-24.418 0-44.398-19.98-44.398-44.398 0-24.418 19.98-44.398 44.398-44.398h29.598c4.4414 0 7.3984-2.9609 7.3984-7.3984 0-53.277 42.918-96.195 96.195-96.195s96.195 42.918 96.195 96.195c0 4.4414 2.9609 7.3984 7.3984 7.3984h29.598c24.418 0 44.398 19.98 44.398 44.398 0.003906 24.422-19.977 44.398-44.395 44.398z" fill="#00F6FF" />
 </g>
</svg>
